<mxfile host="app.diagrams.net" agent="Mozilla/5.0 (X11; Linux x86_64) AppleWebKit/537.36 (KHTML, like Gecko) Chrome/130.0.0.0 Safari/537.36" version="24.8.9">
  <diagram name="Page-1" id="48T6HuyZbfNUOI5xEzSV">
    <mxGraphModel dx="2284" dy="1854" grid="1" gridSize="10" guides="1" tooltips="1" connect="1" arrows="1" fold="1" page="1" pageScale="1" pageWidth="850" pageHeight="1100" math="0" shadow="0">
      <root>
        <mxCell id="0" />
        <mxCell id="1" parent="0" />
        <mxCell id="SWFk3_bEERDI6yJJOWaN-1" value="&lt;font style=&quot;font-size: 14px;&quot;&gt;&lt;b&gt;raw umb data&lt;/b&gt;&lt;/font&gt;" style="rounded=0;whiteSpace=wrap;html=1;" parent="1" vertex="1">
          <mxGeometry x="200" y="50" width="160" height="40" as="geometry" />
        </mxCell>
        <mxCell id="SWFk3_bEERDI6yJJOWaN-2" value="2024_transformed.csv" style="rounded=1;whiteSpace=wrap;html=1;arcSize=50;" parent="1" vertex="1">
          <mxGeometry x="210" y="160" width="140" height="60" as="geometry" />
        </mxCell>
        <mxCell id="SWFk3_bEERDI6yJJOWaN-3" value="" style="endArrow=classic;html=1;rounded=0;exitX=0.5;exitY=1;exitDx=0;exitDy=0;" parent="1" source="SWFk3_bEERDI6yJJOWaN-1" target="SWFk3_bEERDI6yJJOWaN-2" edge="1">
          <mxGeometry width="50" height="50" relative="1" as="geometry">
            <mxPoint x="400" y="410" as="sourcePoint" />
            <mxPoint x="450" y="360" as="targetPoint" />
          </mxGeometry>
        </mxCell>
        <mxCell id="SWFk3_bEERDI6yJJOWaN-6" value="&lt;b&gt;&lt;font style=&quot;font-size: 12px;&quot;&gt;prepare_input_data.py&lt;/font&gt;&lt;/b&gt;" style="edgeLabel;html=1;align=center;verticalAlign=middle;resizable=0;points=[];" parent="SWFk3_bEERDI6yJJOWaN-3" vertex="1" connectable="0">
          <mxGeometry x="-0.3" y="1" relative="1" as="geometry">
            <mxPoint x="-1" y="9" as="offset" />
          </mxGeometry>
        </mxCell>
        <mxCell id="SWFk3_bEERDI6yJJOWaN-4" value="" style="endArrow=classic;html=1;rounded=0;exitX=0;exitY=0.5;exitDx=0;exitDy=0;entryX=1;entryY=0.5;entryDx=0;entryDy=0;" parent="1" source="SWFk3_bEERDI6yJJOWaN-2" target="SWFk3_bEERDI6yJJOWaN-17" edge="1">
          <mxGeometry width="50" height="50" relative="1" as="geometry">
            <mxPoint x="400" y="410" as="sourcePoint" />
            <mxPoint x="160" y="280" as="targetPoint" />
          </mxGeometry>
        </mxCell>
        <mxCell id="SWFk3_bEERDI6yJJOWaN-25" value="&lt;font style=&quot;font-size: 12px;&quot;&gt;&lt;b&gt;prepare_treatment_data.py&lt;/b&gt;&lt;/font&gt;" style="edgeLabel;html=1;align=center;verticalAlign=middle;resizable=0;points=[];" parent="SWFk3_bEERDI6yJJOWaN-4" vertex="1" connectable="0">
          <mxGeometry x="-0.2391" y="-2" relative="1" as="geometry">
            <mxPoint x="-27" y="5" as="offset" />
          </mxGeometry>
        </mxCell>
        <mxCell id="SWFk3_bEERDI6yJJOWaN-5" value="&lt;font style=&quot;font-size: 14px;&quot;&gt;&lt;b&gt;tcga data&lt;/b&gt;&lt;/font&gt;" style="rounded=0;whiteSpace=wrap;html=1;" parent="1" vertex="1">
          <mxGeometry x="560" y="40" width="160" height="40" as="geometry" />
        </mxCell>
        <mxCell id="SWFk3_bEERDI6yJJOWaN-8" value="tcga_data2.csv" style="rounded=1;whiteSpace=wrap;html=1;arcSize=50;" parent="1" vertex="1">
          <mxGeometry x="570" y="160" width="140" height="60" as="geometry" />
        </mxCell>
        <mxCell id="SWFk3_bEERDI6yJJOWaN-9" value="" style="endArrow=classic;html=1;rounded=0;exitX=0.5;exitY=1;exitDx=0;exitDy=0;entryX=0.5;entryY=0;entryDx=0;entryDy=0;" parent="1" source="SWFk3_bEERDI6yJJOWaN-5" target="SWFk3_bEERDI6yJJOWaN-8" edge="1">
          <mxGeometry width="50" height="50" relative="1" as="geometry">
            <mxPoint x="400" y="410" as="sourcePoint" />
            <mxPoint x="450" y="360" as="targetPoint" />
          </mxGeometry>
        </mxCell>
        <mxCell id="SWFk3_bEERDI6yJJOWaN-10" value="prepare_tcga_data.py" style="edgeLabel;align=center;verticalAlign=middle;resizable=0;points=[];fontFamily=Helvetica;fontStyle=1;fontSize=12;" parent="SWFk3_bEERDI6yJJOWaN-9" vertex="1" connectable="0">
          <mxGeometry x="-0.0333" y="1" relative="1" as="geometry">
            <mxPoint as="offset" />
          </mxGeometry>
        </mxCell>
        <mxCell id="SWFk3_bEERDI6yJJOWaN-11" value="" style="endArrow=classic;html=1;rounded=0;exitX=1;exitY=0.5;exitDx=0;exitDy=0;" parent="1" source="SWFk3_bEERDI6yJJOWaN-2" edge="1">
          <mxGeometry width="50" height="50" relative="1" as="geometry">
            <mxPoint x="400" y="420" as="sourcePoint" />
            <mxPoint x="720" y="270" as="targetPoint" />
          </mxGeometry>
        </mxCell>
        <mxCell id="SWFk3_bEERDI6yJJOWaN-12" value="" style="endArrow=classic;html=1;rounded=0;exitX=0.5;exitY=1;exitDx=0;exitDy=0;" parent="1" source="SWFk3_bEERDI6yJJOWaN-8" edge="1">
          <mxGeometry width="50" height="50" relative="1" as="geometry">
            <mxPoint x="400" y="420" as="sourcePoint" />
            <mxPoint x="720" y="270" as="targetPoint" />
          </mxGeometry>
        </mxCell>
        <mxCell id="SWFk3_bEERDI6yJJOWaN-13" value="" style="endArrow=classic;html=1;rounded=0;entryX=0.5;entryY=0;entryDx=0;entryDy=0;" parent="1" target="SWFk3_bEERDI6yJJOWaN-15" edge="1">
          <mxGeometry width="50" height="50" relative="1" as="geometry">
            <mxPoint x="720" y="270" as="sourcePoint" />
            <mxPoint x="720" y="330" as="targetPoint" />
          </mxGeometry>
        </mxCell>
        <mxCell id="SWFk3_bEERDI6yJJOWaN-14" value="&lt;b&gt;&lt;font style=&quot;font-size: 12px;&quot;&gt;table_transform.py&lt;/font&gt;&lt;/b&gt;" style="edgeLabel;html=1;align=center;verticalAlign=middle;resizable=0;points=[];" parent="SWFk3_bEERDI6yJJOWaN-13" vertex="1" connectable="0">
          <mxGeometry x="-0.24" y="-1" relative="1" as="geometry">
            <mxPoint as="offset" />
          </mxGeometry>
        </mxCell>
        <mxCell id="SWFk3_bEERDI6yJJOWaN-15" value="umb_tcga_join.csv" style="rounded=1;whiteSpace=wrap;html=1;arcSize=50;" parent="1" vertex="1">
          <mxGeometry x="650" y="330" width="140" height="60" as="geometry" />
        </mxCell>
        <mxCell id="SWFk3_bEERDI6yJJOWaN-17" value="tdf&lt;span style=&quot;background-color: initial;&quot;&gt;.csv&lt;/span&gt;" style="rounded=1;whiteSpace=wrap;html=1;arcSize=50;" parent="1" vertex="1">
          <mxGeometry x="-120" y="230" width="140" height="60" as="geometry" />
        </mxCell>
        <mxCell id="SWFk3_bEERDI6yJJOWaN-18" value="" style="endArrow=classic;html=1;rounded=0;exitX=0;exitY=0.5;exitDx=0;exitDy=0;entryX=1;entryY=0.5;entryDx=0;entryDy=0;" parent="1" source="SWFk3_bEERDI6yJJOWaN-17" target="SWFk3_bEERDI6yJJOWaN-19" edge="1">
          <mxGeometry width="50" height="50" relative="1" as="geometry">
            <mxPoint x="190" y="290" as="sourcePoint" />
            <mxPoint x="-210" y="310" as="targetPoint" />
          </mxGeometry>
        </mxCell>
        <mxCell id="SWFk3_bEERDI6yJJOWaN-28" value="&lt;b&gt;&lt;font style=&quot;font-size: 12px;&quot;&gt;table_transform.py&lt;/font&gt;&lt;/b&gt;" style="edgeLabel;html=1;align=center;verticalAlign=middle;resizable=0;points=[];" parent="SWFk3_bEERDI6yJJOWaN-18" vertex="1" connectable="0">
          <mxGeometry x="-0.0607" y="2" relative="1" as="geometry">
            <mxPoint as="offset" />
          </mxGeometry>
        </mxCell>
        <mxCell id="SWFk3_bEERDI6yJJOWaN-19" value="tdf_chemo&lt;span style=&quot;background-color: initial;&quot;&gt;.csv&lt;/span&gt;" style="rounded=1;whiteSpace=wrap;html=1;arcSize=50;" parent="1" vertex="1">
          <mxGeometry x="-495" y="250" width="140" height="60" as="geometry" />
        </mxCell>
        <mxCell id="SWFk3_bEERDI6yJJOWaN-20" value="tdf_imuno&lt;span style=&quot;background-color: initial;&quot;&gt;.csv&lt;/span&gt;" style="rounded=1;whiteSpace=wrap;html=1;arcSize=50;" parent="1" vertex="1">
          <mxGeometry x="-390" y="342" width="140" height="60" as="geometry" />
        </mxCell>
        <mxCell id="SWFk3_bEERDI6yJJOWaN-21" value="tdf_radio&lt;span style=&quot;background-color: initial;&quot;&gt;.csv&lt;/span&gt;" style="rounded=1;whiteSpace=wrap;html=1;arcSize=50;" parent="1" vertex="1">
          <mxGeometry x="-330" y="170" width="140" height="60" as="geometry" />
        </mxCell>
        <mxCell id="SWFk3_bEERDI6yJJOWaN-22" value="" style="endArrow=classic;html=1;rounded=0;exitX=0.086;exitY=0.933;exitDx=0;exitDy=0;entryX=0.45;entryY=0.067;entryDx=0;entryDy=0;exitPerimeter=0;entryPerimeter=0;" parent="1" source="SWFk3_bEERDI6yJJOWaN-17" target="SWFk3_bEERDI6yJJOWaN-20" edge="1">
          <mxGeometry width="50" height="50" relative="1" as="geometry">
            <mxPoint x="240" y="290" as="sourcePoint" />
            <mxPoint x="290" y="240" as="targetPoint" />
          </mxGeometry>
        </mxCell>
        <mxCell id="SWFk3_bEERDI6yJJOWaN-27" value="&lt;b&gt;&lt;font style=&quot;font-size: 12px;&quot;&gt;table_transform.py&lt;/font&gt;&lt;/b&gt;" style="edgeLabel;html=1;align=center;verticalAlign=middle;resizable=0;points=[];" parent="SWFk3_bEERDI6yJJOWaN-22" vertex="1" connectable="0">
          <mxGeometry x="-0.4" relative="1" as="geometry">
            <mxPoint as="offset" />
          </mxGeometry>
        </mxCell>
        <mxCell id="SWFk3_bEERDI6yJJOWaN-23" value="" style="endArrow=classic;html=1;rounded=0;exitX=0;exitY=0.5;exitDx=0;exitDy=0;entryX=0.5;entryY=1;entryDx=0;entryDy=0;" parent="1" source="SWFk3_bEERDI6yJJOWaN-17" target="SWFk3_bEERDI6yJJOWaN-21" edge="1">
          <mxGeometry width="50" height="50" relative="1" as="geometry">
            <mxPoint x="240" y="290" as="sourcePoint" />
            <mxPoint x="290" y="240" as="targetPoint" />
          </mxGeometry>
        </mxCell>
        <mxCell id="SWFk3_bEERDI6yJJOWaN-26" value="&lt;b&gt;&lt;font style=&quot;font-size: 12px;&quot;&gt;table_transform.py&lt;/font&gt;&lt;/b&gt;" style="edgeLabel;html=1;align=center;verticalAlign=middle;resizable=0;points=[];" parent="SWFk3_bEERDI6yJJOWaN-23" vertex="1" connectable="0">
          <mxGeometry x="0.1927" y="2" relative="1" as="geometry">
            <mxPoint as="offset" />
          </mxGeometry>
        </mxCell>
        <mxCell id="SWFk3_bEERDI6yJJOWaN-30" value="Figure 8D, Fisher&#39;s exact test.&lt;div&gt;&lt;span style=&quot;background-color: rgb(248, 249, 250); color: rgb(31, 31, 31); font-family: Roboto, &amp;quot;Helvetica Neue&amp;quot;, sans-serif; text-align: left; white-space: pre-wrap;&quot;&gt;Relationship between mutations and response to therapy&lt;/span&gt;&lt;br&gt;&lt;/div&gt;" style="sketch=0;outlineConnect=0;fontColor=#232F3E;gradientColor=none;fillColor=#ED7100;strokeColor=none;dashed=0;verticalLabelPosition=bottom;verticalAlign=top;align=center;html=1;fontSize=12;fontStyle=0;aspect=fixed;pointerEvents=1;shape=mxgraph.aws4.container_registry_image;" parent="1" vertex="1">
          <mxGeometry x="-530" y="502" width="48" height="48" as="geometry" />
        </mxCell>
        <mxCell id="SWFk3_bEERDI6yJJOWaN-31" value="Figure 8C&lt;div&gt;, Fisher&#39;s exact test.&lt;div&gt;&lt;span style=&quot;background-color: rgb(248, 249, 250); color: rgb(31, 31, 31); font-family: Roboto, &amp;quot;Helvetica Neue&amp;quot;, sans-serif; text-align: left; white-space: pre-wrap;&quot;&gt;Relationship between mutations and response to therapy&lt;/span&gt;&lt;br&gt;&lt;/div&gt;&lt;/div&gt;" style="sketch=0;outlineConnect=0;fontColor=#232F3E;gradientColor=none;fillColor=#ED7100;strokeColor=none;dashed=0;verticalLabelPosition=bottom;verticalAlign=top;align=center;html=1;fontSize=12;fontStyle=0;aspect=fixed;pointerEvents=1;shape=mxgraph.aws4.container_registry_image;" parent="1" vertex="1">
          <mxGeometry x="-560" y="70" width="48" height="48" as="geometry" />
        </mxCell>
        <mxCell id="SWFk3_bEERDI6yJJOWaN-32" value="Figure 8B, Fisher&#39;s exact test.&lt;div&gt;&lt;span style=&quot;background-color: rgb(248, 249, 250); color: rgb(31, 31, 31); font-family: Roboto, &amp;quot;Helvetica Neue&amp;quot;, sans-serif; text-align: left; white-space: pre-wrap;&quot;&gt;Relationship between mutations and response to therapy&lt;/span&gt;&lt;br&gt;&lt;/div&gt;" style="sketch=0;outlineConnect=0;fontColor=#232F3E;gradientColor=none;fillColor=#ED7100;strokeColor=none;dashed=0;verticalLabelPosition=bottom;verticalAlign=top;align=center;html=1;fontSize=12;fontStyle=0;aspect=fixed;pointerEvents=1;shape=mxgraph.aws4.container_registry_image;" parent="1" vertex="1">
          <mxGeometry x="-620" y="333" width="48" height="48" as="geometry" />
        </mxCell>
        <mxCell id="SWFk3_bEERDI6yJJOWaN-33" value="Figure 8A, Fisher&#39;s exact test.&lt;div&gt;&lt;span style=&quot;background-color: rgb(248, 249, 250); color: rgb(31, 31, 31); font-family: Roboto, &amp;quot;Helvetica Neue&amp;quot;, sans-serif; text-align: left; white-space: pre-wrap;&quot;&gt;Relationship between mutations and response to therapy&lt;/span&gt;&lt;br&gt;&lt;/div&gt;" style="sketch=0;outlineConnect=0;fontColor=#232F3E;gradientColor=none;fillColor=#ED7100;strokeColor=none;dashed=0;verticalLabelPosition=bottom;verticalAlign=top;align=center;html=1;fontSize=12;fontStyle=0;aspect=fixed;pointerEvents=1;shape=mxgraph.aws4.container_registry_image;" parent="1" vertex="1">
          <mxGeometry x="-160" y="-8" width="48" height="48" as="geometry" />
        </mxCell>
        <mxCell id="SWFk3_bEERDI6yJJOWaN-34" value="" style="endArrow=classic;html=1;rounded=0;exitX=0.5;exitY=0;exitDx=0;exitDy=0;" parent="1" source="SWFk3_bEERDI6yJJOWaN-17" target="SWFk3_bEERDI6yJJOWaN-33" edge="1">
          <mxGeometry width="50" height="50" relative="1" as="geometry">
            <mxPoint x="80" y="430" as="sourcePoint" />
            <mxPoint x="130" y="380" as="targetPoint" />
          </mxGeometry>
        </mxCell>
        <mxCell id="SWFk3_bEERDI6yJJOWaN-35" value="&lt;font face=&quot;Helvetica&quot; style=&quot;font-size: 12px;&quot;&gt;&lt;b&gt;survplots.py&amp;nbsp;&lt;/b&gt;&lt;/font&gt;&lt;div&gt;&lt;font face=&quot;Helvetica&quot; style=&quot;font-size: 12px;&quot;&gt;&lt;b&gt;&lt;span style=&quot;color: rgb(8, 8, 8);&quot;&gt;--plot fisher_exact_test&lt;/span&gt;&lt;/b&gt;&lt;/font&gt;&lt;/div&gt;" style="edgeLabel;html=1;align=center;verticalAlign=middle;resizable=0;points=[];" parent="SWFk3_bEERDI6yJJOWaN-34" vertex="1" connectable="0">
          <mxGeometry x="-0.3214" y="-2" relative="1" as="geometry">
            <mxPoint x="-22" y="-17" as="offset" />
          </mxGeometry>
        </mxCell>
        <mxCell id="SWFk3_bEERDI6yJJOWaN-36" value="" style="endArrow=classic;html=1;rounded=0;exitX=0;exitY=0.367;exitDx=0;exitDy=0;exitPerimeter=0;" parent="1" source="SWFk3_bEERDI6yJJOWaN-21" target="SWFk3_bEERDI6yJJOWaN-31" edge="1">
          <mxGeometry width="50" height="50" relative="1" as="geometry">
            <mxPoint x="80" y="430" as="sourcePoint" />
            <mxPoint x="130" y="380" as="targetPoint" />
          </mxGeometry>
        </mxCell>
        <UserObject label="&lt;b style=&quot;forced-color-adjust: none; color: rgb(0, 0, 0); font-family: Helvetica; font-size: 12px; font-style: normal; font-variant-ligatures: normal; font-variant-caps: normal; letter-spacing: normal; orphans: 2; text-align: center; text-indent: 0px; text-transform: none; widows: 2; word-spacing: 0px; -webkit-text-stroke-width: 0px; white-space: nowrap; background-color: rgb(255, 255, 255); text-decoration-thickness: initial; text-decoration-style: initial; text-decoration-color: initial;&quot;&gt;survplots.py&amp;nbsp;&lt;span style=&quot;forced-color-adjust: none; color: rgb(8, 8, 8);&quot;&gt;--plot fisher_exact_test&lt;/span&gt;&lt;/b&gt;" link="&lt;b style=&quot;forced-color-adjust: none; color: rgb(0, 0, 0); font-family: Helvetica; font-size: 12px; font-style: normal; font-variant-ligatures: normal; font-variant-caps: normal; letter-spacing: normal; orphans: 2; text-align: center; text-indent: 0px; text-transform: none; widows: 2; word-spacing: 0px; -webkit-text-stroke-width: 0px; white-space: nowrap; background-color: rgb(255, 255, 255); text-decoration-thickness: initial; text-decoration-style: initial; text-decoration-color: initial;&quot;&gt;survplots.py&amp;nbsp;&lt;span style=&quot;forced-color-adjust: none; color: rgb(8, 8, 8);&quot;&gt;--plot fisher_exact_test&lt;/span&gt;&lt;/b&gt;" id="SWFk3_bEERDI6yJJOWaN-38">
          <mxCell style="edgeLabel;html=1;align=center;verticalAlign=middle;resizable=0;points=[];" parent="SWFk3_bEERDI6yJJOWaN-36" vertex="1" connectable="0">
            <mxGeometry x="-0.389" y="-3" relative="1" as="geometry">
              <mxPoint as="offset" />
            </mxGeometry>
          </mxCell>
        </UserObject>
        <mxCell id="SWFk3_bEERDI6yJJOWaN-44" value="" style="endArrow=classic;html=1;rounded=0;exitX=0.179;exitY=1.05;exitDx=0;exitDy=0;exitPerimeter=0;" parent="1" source="SWFk3_bEERDI6yJJOWaN-19" target="SWFk3_bEERDI6yJJOWaN-32" edge="1">
          <mxGeometry width="50" height="50" relative="1" as="geometry">
            <mxPoint x="80" y="430" as="sourcePoint" />
            <mxPoint x="130" y="380" as="targetPoint" />
          </mxGeometry>
        </mxCell>
        <UserObject label="&lt;b style=&quot;forced-color-adjust: none; color: rgb(0, 0, 0); font-family: Helvetica; font-style: normal; font-variant-ligatures: normal; font-variant-caps: normal; letter-spacing: normal; orphans: 2; text-align: center; text-indent: 0px; text-transform: none; widows: 2; word-spacing: 0px; -webkit-text-stroke-width: 0px; white-space: nowrap; background-color: rgb(255, 255, 255); text-decoration-thickness: initial; text-decoration-style: initial; text-decoration-color: initial; font-size: 12px;&quot;&gt;survplots.py&amp;nbsp;&lt;span style=&quot;forced-color-adjust: none; color: rgb(8, 8, 8);&quot;&gt;--plot fisher_exact_test&lt;/span&gt;&lt;/b&gt;" link="&lt;b style=&quot;forced-color-adjust: none; color: rgb(0, 0, 0); font-family: Helvetica; font-style: normal; font-variant-ligatures: normal; font-variant-caps: normal; letter-spacing: normal; orphans: 2; text-align: center; text-indent: 0px; text-transform: none; widows: 2; word-spacing: 0px; -webkit-text-stroke-width: 0px; white-space: nowrap; background-color: rgb(255, 255, 255); text-decoration-thickness: initial; text-decoration-style: initial; text-decoration-color: initial; font-size: 12px;&quot;&gt;survplots.py&amp;nbsp;&lt;span style=&quot;forced-color-adjust: none; color: rgb(8, 8, 8);&quot;&gt;--plot fisher_exact_test&lt;/span&gt;&lt;/b&gt;" id="SWFk3_bEERDI6yJJOWaN-45">
          <mxCell style="edgeLabel;html=1;align=center;verticalAlign=middle;resizable=0;points=[];" parent="SWFk3_bEERDI6yJJOWaN-44" vertex="1" connectable="0">
            <mxGeometry x="-0.3586" y="4" relative="1" as="geometry">
              <mxPoint as="offset" />
            </mxGeometry>
          </mxCell>
        </UserObject>
        <mxCell id="SWFk3_bEERDI6yJJOWaN-48" value="" style="endArrow=classic;html=1;rounded=0;exitX=0.336;exitY=1.05;exitDx=0;exitDy=0;exitPerimeter=0;" parent="1" source="SWFk3_bEERDI6yJJOWaN-20" target="SWFk3_bEERDI6yJJOWaN-30" edge="1">
          <mxGeometry width="50" height="50" relative="1" as="geometry">
            <mxPoint x="80" y="430" as="sourcePoint" />
            <mxPoint x="130" y="380" as="targetPoint" />
          </mxGeometry>
        </mxCell>
        <mxCell id="SWFk3_bEERDI6yJJOWaN-49" value="&lt;b style=&quot;font-size: 12px;&quot;&gt;survplots.py&amp;nbsp;&lt;span style=&quot;color: rgb(8, 8, 8);&quot;&gt;--plot fisher_exact_test&lt;/span&gt;&lt;/b&gt;" style="edgeLabel;html=1;align=center;verticalAlign=middle;resizable=0;points=[];" parent="SWFk3_bEERDI6yJJOWaN-48" vertex="1" connectable="0">
          <mxGeometry x="-0.2853" y="1" relative="1" as="geometry">
            <mxPoint as="offset" />
          </mxGeometry>
        </mxCell>
        <mxCell id="SWFk3_bEERDI6yJJOWaN-52" value="table 1&lt;div&gt;Clinical table&lt;/div&gt;&lt;div&gt;UMB coh&lt;span style=&quot;color: rgba(0, 0, 0, 0); font-family: monospace; font-size: 0px; text-align: start; text-wrap: nowrap; background-color: initial;&quot;&gt;%3CmxGraphModel%3E%3Croot%3E%3CmxCell%20id%3D%220%22%2F%3E%3CmxCell%20id%3D%221%22%20parent%3D%220%22%2F%3E%3CmxCell%20id%3D%222%22%20value%3D%22Clinical%20table%26amp%3Bnbsp%3B%26lt%3Bdiv%26gt%3BUMB-TCGA%26lt%3B%2Fdiv%26gt%3B%22%20style%3D%22shape%3DinternalStorage%3BwhiteSpace%3Dwrap%3Bhtml%3D1%3BbackgroundOutline%3D1%3B%22%20vertex%3D%221%22%20parent%3D%221%22%3E%3CmxGeometry%20x%3D%22680%22%20y%3D%22440%22%20width%3D%2280%22%20height%3D%2280%22%20as%3D%22geometry%22%2F%3E%3C%2FmxCell%3E%3C%2Froot%3E%3C%2FmxGraphModel%3E&lt;/span&gt;&lt;span style=&quot;background-color: initial;&quot;&gt;orts&amp;nbsp;&lt;/span&gt;&lt;/div&gt;" style="shape=process;whiteSpace=wrap;html=1;backgroundOutline=1;" parent="1" vertex="1">
          <mxGeometry x="425" y="60" width="120" height="90" as="geometry" />
        </mxCell>
        <mxCell id="SWFk3_bEERDI6yJJOWaN-53" value="table 1&lt;div&gt;(Suppliment)&lt;br&gt;&lt;div&gt;Clinical table&lt;/div&gt;&lt;div&gt;UMB-TCGA coh&lt;span style=&quot;color: rgba(0, 0, 0, 0); font-family: monospace; font-size: 0px; text-align: start; text-wrap: nowrap; background-color: initial;&quot;&gt;%3CmxGraphModel%3E%3Croot%3E%3CmxCell%20id%3D%220%22%2F%3E%3CmxCell%20id%3D%221%22%20parent%3D%220%22%2F%3E%3CmxCell%20id%3D%222%22%20value%3D%22Clinical%20table%26amp%3Bnbsp%3B%26lt%3Bdiv%26gt%3BUMB-TCGA%26lt%3B%2Fdiv%26gt%3B%22%20style%3D%22shape%3DinternalStorage%3BwhiteSpace%3Dwrap%3Bhtml%3D1%3BbackgroundOutline%3D1%3B%22%20vertex%3D%221%22%20parent%3D%221%22%3E%3CmxGeometry%20x%3D%22680%22%20y%3D%22440%22%20width%3D%2280%22%20height%3D%2280%22%20as%3D%22geometry%22%2F%3E%3C%2FmxCell%3E%3C%2Froot%3E%3C%2FmxGraphModel%3E&lt;/span&gt;&lt;span style=&quot;background-color: initial;&quot;&gt;orts comparison&amp;nbsp;&lt;/span&gt;&lt;/div&gt;&lt;/div&gt;" style="shape=process;whiteSpace=wrap;html=1;backgroundOutline=1;" parent="1" vertex="1">
          <mxGeometry x="690" y="470" width="150" height="100" as="geometry" />
        </mxCell>
        <mxCell id="SWFk3_bEERDI6yJJOWaN-54" value="table 1 (Suppliment)&lt;div&gt;Clinical table&lt;/div&gt;&lt;div&gt;sub-coh&lt;span style=&quot;color: rgba(0, 0, 0, 0); font-family: monospace; font-size: 0px; text-align: start; text-wrap: nowrap; background-color: initial;&quot;&gt;%3CmxGraphModel%3E%3Croot%3E%3CmxCell%20id%3D%220%22%2F%3E%3CmxCell%20id%3D%221%22%20parent%3D%220%22%2F%3E%3CmxCell%20id%3D%222%22%20value%3D%22Clinical%20table%26amp%3Bnbsp%3B%26lt%3Bdiv%26gt%3BUMB-TCGA%26lt%3B%2Fdiv%26gt%3B%22%20style%3D%22shape%3DinternalStorage%3BwhiteSpace%3Dwrap%3Bhtml%3D1%3BbackgroundOutline%3D1%3B%22%20vertex%3D%221%22%20parent%3D%221%22%3E%3CmxGeometry%20x%3D%22680%22%20y%3D%22440%22%20width%3D%2280%22%20height%3D%2280%22%20as%3D%22geometry%22%2F%3E%3C%2FmxCell%3E%3C%2Froot%3E%3C%2FmxGraphModel%3E&lt;/span&gt;&lt;span style=&quot;background-color: initial;&quot;&gt;ort 1&lt;/span&gt;&lt;/div&gt;&lt;div&gt;&lt;span style=&quot;background-color: initial;&quot;&gt;vs&lt;/span&gt;&lt;/div&gt;&lt;div&gt;&lt;span style=&quot;background-color: initial;&quot;&gt;sub-cohort 2&amp;nbsp;&lt;/span&gt;&lt;/div&gt;" style="shape=process;whiteSpace=wrap;html=1;backgroundOutline=1;" parent="1" vertex="1">
          <mxGeometry x="520" y="300" width="120" height="90" as="geometry" />
        </mxCell>
        <mxCell id="SWFk3_bEERDI6yJJOWaN-56" value="" style="endArrow=classic;html=1;rounded=0;exitX=1;exitY=0.5;exitDx=0;exitDy=0;entryX=0.375;entryY=0;entryDx=0;entryDy=0;entryPerimeter=0;" parent="1" source="SWFk3_bEERDI6yJJOWaN-2" target="SWFk3_bEERDI6yJJOWaN-54" edge="1">
          <mxGeometry width="50" height="50" relative="1" as="geometry">
            <mxPoint x="80" y="430" as="sourcePoint" />
            <mxPoint x="130" y="380" as="targetPoint" />
          </mxGeometry>
        </mxCell>
        <mxCell id="SWFk3_bEERDI6yJJOWaN-57" value="R script&amp;nbsp;&lt;div&gt;gtsummary()&lt;/div&gt;" style="edgeLabel;html=1;align=center;verticalAlign=middle;resizable=0;points=[];" parent="SWFk3_bEERDI6yJJOWaN-56" vertex="1" connectable="0">
          <mxGeometry x="0.0109" y="-1" relative="1" as="geometry">
            <mxPoint as="offset" />
          </mxGeometry>
        </mxCell>
        <mxCell id="SWFk3_bEERDI6yJJOWaN-58" value="" style="endArrow=classic;html=1;rounded=0;entryX=0;entryY=0.5;entryDx=0;entryDy=0;exitX=1;exitY=0.5;exitDx=0;exitDy=0;" parent="1" source="SWFk3_bEERDI6yJJOWaN-2" target="SWFk3_bEERDI6yJJOWaN-52" edge="1">
          <mxGeometry width="50" height="50" relative="1" as="geometry">
            <mxPoint x="280" y="220" as="sourcePoint" />
            <mxPoint x="455" y="307.5" as="targetPoint" />
          </mxGeometry>
        </mxCell>
        <mxCell id="SWFk3_bEERDI6yJJOWaN-59" value="R script&amp;nbsp;&lt;div&gt;gtsummary()&lt;/div&gt;" style="edgeLabel;html=1;align=center;verticalAlign=middle;resizable=0;points=[];" parent="SWFk3_bEERDI6yJJOWaN-58" vertex="1" connectable="0">
          <mxGeometry x="0.0109" y="-1" relative="1" as="geometry">
            <mxPoint x="-6" y="-3" as="offset" />
          </mxGeometry>
        </mxCell>
        <mxCell id="SWFk3_bEERDI6yJJOWaN-60" value="" style="endArrow=classic;html=1;rounded=0;exitX=0.5;exitY=1;exitDx=0;exitDy=0;entryX=0.413;entryY=0.04;entryDx=0;entryDy=0;entryPerimeter=0;" parent="1" source="SWFk3_bEERDI6yJJOWaN-15" target="SWFk3_bEERDI6yJJOWaN-53" edge="1">
          <mxGeometry width="50" height="50" relative="1" as="geometry">
            <mxPoint x="370" y="210" as="sourcePoint" />
            <mxPoint x="555" y="305" as="targetPoint" />
          </mxGeometry>
        </mxCell>
        <mxCell id="SWFk3_bEERDI6yJJOWaN-61" value="R script&amp;nbsp;&lt;div&gt;gtsummary()&lt;/div&gt;" style="edgeLabel;html=1;align=center;verticalAlign=middle;resizable=0;points=[];" parent="SWFk3_bEERDI6yJJOWaN-60" vertex="1" connectable="0">
          <mxGeometry x="0.0109" y="-1" relative="1" as="geometry">
            <mxPoint as="offset" />
          </mxGeometry>
        </mxCell>
        <mxCell id="SWFk3_bEERDI6yJJOWaN-62" value="" style="endArrow=classic;html=1;rounded=0;exitX=1;exitY=0.5;exitDx=0;exitDy=0;" parent="1" source="SWFk3_bEERDI6yJJOWaN-8" target="SWFk3_bEERDI6yJJOWaN-65" edge="1">
          <mxGeometry width="50" height="50" relative="1" as="geometry">
            <mxPoint x="80" y="430" as="sourcePoint" />
            <mxPoint x="842" y="190" as="targetPoint" />
          </mxGeometry>
        </mxCell>
        <mxCell id="SWFk3_bEERDI6yJJOWaN-63" value="&lt;b&gt;&lt;font style=&quot;font-size: 12px;&quot;&gt;oncoplot.py&lt;/font&gt;&lt;/b&gt;" style="edgeLabel;html=1;align=center;verticalAlign=middle;resizable=0;points=[];" parent="SWFk3_bEERDI6yJJOWaN-62" vertex="1" connectable="0">
          <mxGeometry x="0.303" y="3" relative="1" as="geometry">
            <mxPoint x="-26" y="-7" as="offset" />
          </mxGeometry>
        </mxCell>
        <mxCell id="SWFk3_bEERDI6yJJOWaN-65" value="Figure 2.&amp;nbsp;&lt;div&gt;(Suppliment)&lt;/div&gt;&lt;div&gt;TCGA oncoplot&lt;/div&gt;" style="shape=image;html=1;verticalAlign=top;verticalLabelPosition=bottom;labelBackgroundColor=#ffffff;imageAspect=0;aspect=fixed;image=https://cdn4.iconfinder.com/data/icons/ionicons/512/icon-image-128.png" parent="1" vertex="1">
          <mxGeometry x="840" y="80" width="90" height="90" as="geometry" />
        </mxCell>
        <mxCell id="SWFk3_bEERDI6yJJOWaN-66" value="Figure 2.&amp;nbsp;&lt;div&gt;(Suppliment)&lt;/div&gt;&lt;div&gt;UMB oncoplot&lt;/div&gt;" style="shape=image;html=1;verticalAlign=top;verticalLabelPosition=bottom;labelBackgroundColor=#ffffff;imageAspect=0;aspect=fixed;image=https://cdn4.iconfinder.com/data/icons/ionicons/512/icon-image-128.png" parent="1" vertex="1">
          <mxGeometry x="410" y="312" width="90" height="90" as="geometry" />
        </mxCell>
        <mxCell id="SWFk3_bEERDI6yJJOWaN-70" value="" style="endArrow=classic;html=1;rounded=0;exitX=1;exitY=0.5;exitDx=0;exitDy=0;" parent="1" target="SWFk3_bEERDI6yJJOWaN-66" edge="1">
          <mxGeometry width="50" height="50" relative="1" as="geometry">
            <mxPoint x="320" y="220" as="sourcePoint" />
            <mxPoint x="452" y="220" as="targetPoint" />
          </mxGeometry>
        </mxCell>
        <mxCell id="SWFk3_bEERDI6yJJOWaN-71" value="&lt;b&gt;&lt;font style=&quot;font-size: 12px;&quot;&gt;oncoplot.py&lt;/font&gt;&lt;/b&gt;" style="edgeLabel;html=1;align=center;verticalAlign=middle;resizable=0;points=[];" parent="SWFk3_bEERDI6yJJOWaN-70" vertex="1" connectable="0">
          <mxGeometry x="0.303" y="3" relative="1" as="geometry">
            <mxPoint x="-8" y="-13" as="offset" />
          </mxGeometry>
        </mxCell>
        <mxCell id="SWFk3_bEERDI6yJJOWaN-73" value="Figure 1.&lt;div&gt;Swimmer plot&lt;/div&gt;" style="shape=image;html=1;verticalAlign=top;verticalLabelPosition=bottom;labelBackgroundColor=#ffffff;imageAspect=0;aspect=fixed;image=https://cdn1.iconfinder.com/data/icons/unicons-line-vol-2/24/comment-image-128.png" parent="1" vertex="1">
          <mxGeometry x="50" y="15" width="90" height="90" as="geometry" />
        </mxCell>
        <mxCell id="SWFk3_bEERDI6yJJOWaN-74" value="" style="endArrow=classic;html=1;rounded=0;exitX=0.636;exitY=0;exitDx=0;exitDy=0;exitPerimeter=0;" parent="1" source="SWFk3_bEERDI6yJJOWaN-17" target="SWFk3_bEERDI6yJJOWaN-73" edge="1">
          <mxGeometry width="50" height="50" relative="1" as="geometry">
            <mxPoint x="300" y="390" as="sourcePoint" />
            <mxPoint x="350" y="340" as="targetPoint" />
          </mxGeometry>
        </mxCell>
        <mxCell id="SWFk3_bEERDI6yJJOWaN-75" value="&lt;b&gt;&lt;font style=&quot;font-size: 12px;&quot;&gt;swimmer_plot.py&lt;/font&gt;&lt;/b&gt;" style="edgeLabel;html=1;align=center;verticalAlign=middle;resizable=0;points=[];" parent="SWFk3_bEERDI6yJJOWaN-74" vertex="1" connectable="0">
          <mxGeometry x="0.0176" y="-1" relative="1" as="geometry">
            <mxPoint x="13" y="-17" as="offset" />
          </mxGeometry>
        </mxCell>
        <mxCell id="SWFk3_bEERDI6yJJOWaN-76" value="Figure 4. Kaplan-Meier plots&lt;div&gt;Overall survival&lt;/div&gt;&lt;div&gt;UMB cohort&lt;/div&gt;" style="shape=image;html=1;verticalAlign=top;verticalLabelPosition=bottom;labelBackgroundColor=#ffffff;imageAspect=0;aspect=fixed;image=https://cdn4.iconfinder.com/data/icons/essentials-71/24/006_-_Image-128.png" parent="1" vertex="1">
          <mxGeometry x="390" y="506" width="88" height="88" as="geometry" />
        </mxCell>
        <mxCell id="SWFk3_bEERDI6yJJOWaN-77" value="" style="endArrow=classic;html=1;rounded=0;exitX=0.5;exitY=1;exitDx=0;exitDy=0;" parent="1" source="SWFk3_bEERDI6yJJOWaN-2" target="SWFk3_bEERDI6yJJOWaN-76" edge="1">
          <mxGeometry width="50" height="50" relative="1" as="geometry">
            <mxPoint x="300" y="390" as="sourcePoint" />
            <mxPoint x="350" y="340" as="targetPoint" />
          </mxGeometry>
        </mxCell>
        <mxCell id="SWFk3_bEERDI6yJJOWaN-78" value="&lt;font style=&quot;font-size: 12px;&quot; face=&quot;Helvetica&quot;&gt;&lt;b&gt;survplots.py&amp;nbsp;&lt;/b&gt;&lt;/font&gt;&lt;div&gt;&lt;font style=&quot;font-size: 12px;&quot; face=&quot;Helvetica&quot;&gt;&lt;b&gt;&lt;span style=&quot;color: rgb(8, 8, 8);&quot;&gt;--plot kaplan-meier&lt;/span&gt;&lt;/b&gt;&lt;/font&gt;&lt;/div&gt;" style="edgeLabel;html=1;align=center;verticalAlign=middle;resizable=0;points=[];" parent="SWFk3_bEERDI6yJJOWaN-77" vertex="1" connectable="0">
          <mxGeometry x="0.0701" y="2" relative="1" as="geometry">
            <mxPoint as="offset" />
          </mxGeometry>
        </mxCell>
        <mxCell id="SWFk3_bEERDI6yJJOWaN-79" value="Figure 4. Kaplan-Meier plots&lt;div&gt;Overall survival&lt;/div&gt;&lt;div&gt;TCGA cohort&lt;/div&gt;" style="shape=image;html=1;verticalAlign=top;verticalLabelPosition=bottom;labelBackgroundColor=#ffffff;imageAspect=0;aspect=fixed;image=https://cdn4.iconfinder.com/data/icons/essentials-71/24/006_-_Image-128.png" parent="1" vertex="1">
          <mxGeometry x="970" y="280" width="88" height="88" as="geometry" />
        </mxCell>
        <mxCell id="SWFk3_bEERDI6yJJOWaN-81" value="" style="endArrow=classic;html=1;rounded=0;exitX=1;exitY=0.5;exitDx=0;exitDy=0;" parent="1" source="SWFk3_bEERDI6yJJOWaN-8" target="SWFk3_bEERDI6yJJOWaN-79" edge="1">
          <mxGeometry width="50" height="50" relative="1" as="geometry">
            <mxPoint x="700" y="200" as="sourcePoint" />
            <mxPoint x="290" y="370" as="targetPoint" />
          </mxGeometry>
        </mxCell>
        <mxCell id="SWFk3_bEERDI6yJJOWaN-82" value="&lt;font style=&quot;font-size: 12px;&quot; face=&quot;Helvetica&quot;&gt;&lt;b&gt;survplots.py&amp;nbsp;&lt;/b&gt;&lt;/font&gt;&lt;div&gt;&lt;font style=&quot;font-size: 12px;&quot; face=&quot;Helvetica&quot;&gt;&lt;b&gt;&lt;span style=&quot;color: rgb(8, 8, 8);&quot;&gt;--plot kaplan-meier&lt;/span&gt;&lt;/b&gt;&lt;/font&gt;&lt;/div&gt;" style="edgeLabel;html=1;align=center;verticalAlign=middle;resizable=0;points=[];" parent="SWFk3_bEERDI6yJJOWaN-81" vertex="1" connectable="0">
          <mxGeometry x="0.0701" y="2" relative="1" as="geometry">
            <mxPoint as="offset" />
          </mxGeometry>
        </mxCell>
        <mxCell id="SWFk3_bEERDI6yJJOWaN-85" value="Figure 6. Kaplan-Meier plots&lt;div&gt;disease free time&lt;/div&gt;" style="shape=image;html=1;verticalAlign=top;verticalLabelPosition=bottom;labelBackgroundColor=#ffffff;imageAspect=0;aspect=fixed;image=https://cdn4.iconfinder.com/data/icons/essentials-71/24/006_-_Image-128.png" parent="1" vertex="1">
          <mxGeometry x="70" y="530" width="88" height="88" as="geometry" />
        </mxCell>
        <mxCell id="SWFk3_bEERDI6yJJOWaN-86" value="" style="endArrow=classic;html=1;rounded=0;exitX=0.436;exitY=1.05;exitDx=0;exitDy=0;exitPerimeter=0;" parent="1" source="SWFk3_bEERDI6yJJOWaN-17" target="SWFk3_bEERDI6yJJOWaN-85" edge="1">
          <mxGeometry width="50" height="50" relative="1" as="geometry">
            <mxPoint x="-20" y="290" as="sourcePoint" />
            <mxPoint x="50" y="410" as="targetPoint" />
          </mxGeometry>
        </mxCell>
        <mxCell id="SWFk3_bEERDI6yJJOWaN-87" value="&lt;font style=&quot;font-size: 12px;&quot; face=&quot;Helvetica&quot;&gt;&lt;b&gt;survplots.py&amp;nbsp;&lt;/b&gt;&lt;/font&gt;&lt;div&gt;&lt;font style=&quot;font-size: 12px;&quot; face=&quot;Helvetica&quot;&gt;&lt;b&gt;&lt;span style=&quot;color: rgb(8, 8, 8);&quot;&gt;--plot kaplan-meier&lt;/span&gt;&lt;/b&gt;&lt;/font&gt;&lt;/div&gt;" style="edgeLabel;html=1;align=center;verticalAlign=middle;resizable=0;points=[];" parent="SWFk3_bEERDI6yJJOWaN-86" vertex="1" connectable="0">
          <mxGeometry x="0.0701" y="2" relative="1" as="geometry">
            <mxPoint as="offset" />
          </mxGeometry>
        </mxCell>
        <mxCell id="SWFk3_bEERDI6yJJOWaN-88" value="" style="endArrow=classic;html=1;rounded=0;exitX=0.25;exitY=1;exitDx=0;exitDy=0;" parent="1" source="SWFk3_bEERDI6yJJOWaN-2" target="SWFk3_bEERDI6yJJOWaN-89" edge="1">
          <mxGeometry width="50" height="50" relative="1" as="geometry">
            <mxPoint x="270" y="230" as="sourcePoint" />
            <mxPoint x="240" y="370" as="targetPoint" />
          </mxGeometry>
        </mxCell>
        <mxCell id="SWFk3_bEERDI6yJJOWaN-90" value="&lt;b&gt;&lt;font style=&quot;font-size: 12px;&quot;&gt;cox_analysis.py&lt;/font&gt;&lt;/b&gt;" style="edgeLabel;html=1;align=center;verticalAlign=middle;resizable=0;points=[];" parent="SWFk3_bEERDI6yJJOWaN-88" vertex="1" connectable="0">
          <mxGeometry x="0.1765" relative="1" as="geometry">
            <mxPoint as="offset" />
          </mxGeometry>
        </mxCell>
        <mxCell id="SWFk3_bEERDI6yJJOWaN-89" value="Figure 3. Overall survival&amp;nbsp;&lt;div&gt;COX models and tree-plots&lt;/div&gt;&lt;div&gt;UMB cohort&lt;/div&gt;" style="shape=image;html=1;verticalAlign=top;verticalLabelPosition=bottom;labelBackgroundColor=#ffffff;imageAspect=0;aspect=fixed;image=https://cdn4.iconfinder.com/data/icons/evil-icons-user-interface/64/picture-128.png" parent="1" vertex="1">
          <mxGeometry x="200" y="390" width="110" height="110" as="geometry" />
        </mxCell>
        <mxCell id="SWFk3_bEERDI6yJJOWaN-91" value="" style="endArrow=classic;html=1;rounded=0;exitX=1;exitY=1;exitDx=0;exitDy=0;" parent="1" target="SWFk3_bEERDI6yJJOWaN-93" edge="1">
          <mxGeometry width="50" height="50" relative="1" as="geometry">
            <mxPoint x="710" y="210" as="sourcePoint" />
            <mxPoint x="1000" y="520" as="targetPoint" />
          </mxGeometry>
        </mxCell>
        <mxCell id="SWFk3_bEERDI6yJJOWaN-92" value="&lt;b&gt;&lt;font style=&quot;font-size: 12px;&quot;&gt;cox_analysis.py&lt;/font&gt;&lt;/b&gt;" style="edgeLabel;html=1;align=center;verticalAlign=middle;resizable=0;points=[];" parent="SWFk3_bEERDI6yJJOWaN-91" vertex="1" connectable="0">
          <mxGeometry x="0.1765" relative="1" as="geometry">
            <mxPoint as="offset" />
          </mxGeometry>
        </mxCell>
        <mxCell id="SWFk3_bEERDI6yJJOWaN-93" value="Figure 3.(Suppliment&amp;nbsp;&lt;div&gt;)Overall survival&amp;nbsp;&lt;div&gt;COX models and tree-plots&lt;/div&gt;&lt;div&gt;TCGA cohort&lt;/div&gt;&lt;/div&gt;" style="shape=image;html=1;verticalAlign=top;verticalLabelPosition=bottom;labelBackgroundColor=#ffffff;imageAspect=0;aspect=fixed;image=https://cdn4.iconfinder.com/data/icons/evil-icons-user-interface/64/picture-128.png" parent="1" vertex="1">
          <mxGeometry x="920" y="440" width="100" height="100" as="geometry" />
        </mxCell>
        <mxCell id="SWFk3_bEERDI6yJJOWaN-95" value="" style="endArrow=classic;html=1;rounded=0;exitX=0.886;exitY=0.983;exitDx=0;exitDy=0;exitPerimeter=0;" parent="1" target="SWFk3_bEERDI6yJJOWaN-97" edge="1">
          <mxGeometry width="50" height="50" relative="1" as="geometry">
            <mxPoint x="-3.6415315207705135e-14" y="290" as="sourcePoint" />
            <mxPoint x="65.96" y="463.02" as="targetPoint" />
          </mxGeometry>
        </mxCell>
        <mxCell id="SWFk3_bEERDI6yJJOWaN-96" value="&lt;b&gt;&lt;font style=&quot;font-size: 12px;&quot;&gt;cox_analysis.py&lt;/font&gt;&lt;/b&gt;" style="edgeLabel;html=1;align=center;verticalAlign=middle;resizable=0;points=[];" parent="SWFk3_bEERDI6yJJOWaN-95" vertex="1" connectable="0">
          <mxGeometry x="0.1765" relative="1" as="geometry">
            <mxPoint as="offset" />
          </mxGeometry>
        </mxCell>
        <mxCell id="SWFk3_bEERDI6yJJOWaN-97" value="Figure 5. Disease free time&amp;nbsp;&lt;div&gt;COX models and tree-plots&lt;/div&gt;" style="shape=image;html=1;verticalAlign=top;verticalLabelPosition=bottom;labelBackgroundColor=#ffffff;imageAspect=0;aspect=fixed;image=https://cdn4.iconfinder.com/data/icons/evil-icons-user-interface/64/picture-128.png" parent="1" vertex="1">
          <mxGeometry x="70" y="330" width="110" height="110" as="geometry" />
        </mxCell>
        <mxCell id="QfVb8ERAD83yZBM5XTkE-1" value="" style="endArrow=classic;html=1;rounded=0;exitX=0.079;exitY=0.1;exitDx=0;exitDy=0;exitPerimeter=0;entryX=1;entryY=0.967;entryDx=0;entryDy=0;entryPerimeter=0;" edge="1" parent="1" source="SWFk3_bEERDI6yJJOWaN-17" target="QfVb8ERAD83yZBM5XTkE-11">
          <mxGeometry width="50" height="50" relative="1" as="geometry">
            <mxPoint x="160" y="410" as="sourcePoint" />
            <mxPoint x="-370" y="50" as="targetPoint" />
          </mxGeometry>
        </mxCell>
        <mxCell id="QfVb8ERAD83yZBM5XTkE-12" value="&lt;b&gt;adaptree.py&lt;/b&gt;" style="edgeLabel;html=1;align=center;verticalAlign=middle;resizable=0;points=[];" vertex="1" connectable="0" parent="QfVb8ERAD83yZBM5XTkE-1">
          <mxGeometry x="0.1874" y="-2" relative="1" as="geometry">
            <mxPoint x="-1" as="offset" />
          </mxGeometry>
        </mxCell>
        <mxCell id="QfVb8ERAD83yZBM5XTkE-11" value="&lt;div&gt;&lt;br&gt;&lt;/div&gt;&lt;div&gt;&lt;br&gt;&lt;/div&gt;&lt;div&gt;&lt;br&gt;&lt;/div&gt;&lt;div&gt;&lt;br&gt;&lt;/div&gt;&lt;div&gt;&lt;br&gt;&lt;/div&gt;&lt;div&gt;&lt;br&gt;&lt;/div&gt;&lt;div&gt;&lt;br&gt;&lt;/div&gt;&lt;div&gt;&lt;br&gt;&lt;/div&gt;&lt;div&gt;&lt;br&gt;&lt;/div&gt;&lt;div&gt;&lt;br&gt;&lt;/div&gt;&lt;div&gt;&lt;br&gt;&lt;/div&gt;&lt;div&gt;Figure 9. Decision tree&lt;/div&gt;&lt;div&gt;predicted best response&lt;/div&gt;" style="points=[];aspect=fixed;html=1;align=center;shadow=0;dashed=0;fillColor=#FF6A00;strokeColor=none;shape=mxgraph.alibaba_cloud.imagesearch;" vertex="1" parent="1">
          <mxGeometry x="-460" y="-80" width="120" height="120" as="geometry" />
        </mxCell>
        <mxCell id="QfVb8ERAD83yZBM5XTkE-13" value="tdf_recurrence&lt;span style=&quot;background-color: initial;&quot;&gt;.csv&lt;/span&gt;" style="rounded=1;whiteSpace=wrap;html=1;arcSize=50;" vertex="1" parent="1">
          <mxGeometry x="-160" y="470" width="140" height="60" as="geometry" />
        </mxCell>
        <mxCell id="QfVb8ERAD83yZBM5XTkE-14" value="" style="endArrow=classic;html=1;rounded=0;exitX=0.3;exitY=1;exitDx=0;exitDy=0;exitPerimeter=0;entryX=0.5;entryY=0;entryDx=0;entryDy=0;" edge="1" parent="1" target="QfVb8ERAD83yZBM5XTkE-13" source="SWFk3_bEERDI6yJJOWaN-17">
          <mxGeometry width="50" height="50" relative="1" as="geometry">
            <mxPoint x="-73.94000000000005" y="334.98" as="sourcePoint" />
            <mxPoint x="-210" y="420" as="targetPoint" />
          </mxGeometry>
        </mxCell>
        <mxCell id="QfVb8ERAD83yZBM5XTkE-15" value="&lt;b&gt;&lt;font style=&quot;font-size: 12px;&quot;&gt;table_transform.py&lt;/font&gt;&lt;/b&gt;" style="edgeLabel;html=1;align=center;verticalAlign=middle;resizable=0;points=[];" vertex="1" connectable="0" parent="QfVb8ERAD83yZBM5XTkE-14">
          <mxGeometry x="-0.4" relative="1" as="geometry">
            <mxPoint y="41" as="offset" />
          </mxGeometry>
        </mxCell>
        <mxCell id="QfVb8ERAD83yZBM5XTkE-16" value="tdf_initial&lt;span style=&quot;background-color: initial;&quot;&gt;.csv&lt;/span&gt;" style="rounded=1;whiteSpace=wrap;html=1;arcSize=50;" vertex="1" parent="1">
          <mxGeometry x="-310" y="492" width="140" height="60" as="geometry" />
        </mxCell>
        <mxCell id="QfVb8ERAD83yZBM5XTkE-17" value="" style="endArrow=classic;html=1;rounded=0;exitX=0.25;exitY=1;exitDx=0;exitDy=0;entryX=0.5;entryY=0;entryDx=0;entryDy=0;" edge="1" parent="1" target="QfVb8ERAD83yZBM5XTkE-16" source="SWFk3_bEERDI6yJJOWaN-17">
          <mxGeometry width="50" height="50" relative="1" as="geometry">
            <mxPoint x="-228" y="312" as="sourcePoint" />
            <mxPoint x="-360" y="442" as="targetPoint" />
          </mxGeometry>
        </mxCell>
        <mxCell id="QfVb8ERAD83yZBM5XTkE-18" value="&lt;b&gt;&lt;font style=&quot;font-size: 12px;&quot;&gt;table_transform.py&lt;/font&gt;&lt;/b&gt;" style="edgeLabel;html=1;align=center;verticalAlign=middle;resizable=0;points=[];" vertex="1" connectable="0" parent="QfVb8ERAD83yZBM5XTkE-17">
          <mxGeometry x="-0.4" relative="1" as="geometry">
            <mxPoint as="offset" />
          </mxGeometry>
        </mxCell>
        <mxCell id="QfVb8ERAD83yZBM5XTkE-22" value="Figure 11. Kaplan-Meier plots&lt;div&gt;disease free time of initial treatment&lt;/div&gt;" style="shape=image;html=1;verticalAlign=top;verticalLabelPosition=bottom;labelBackgroundColor=#ffffff;imageAspect=0;aspect=fixed;image=https://cdn4.iconfinder.com/data/icons/essentials-71/24/006_-_Image-128.png" vertex="1" parent="1">
          <mxGeometry x="-390" y="660" width="88" height="88" as="geometry" />
        </mxCell>
        <mxCell id="QfVb8ERAD83yZBM5XTkE-23" value="" style="endArrow=classic;html=1;rounded=0;exitX=0.5;exitY=1;exitDx=0;exitDy=0;" edge="1" parent="1" target="QfVb8ERAD83yZBM5XTkE-22" source="QfVb8ERAD83yZBM5XTkE-16">
          <mxGeometry width="50" height="50" relative="1" as="geometry">
            <mxPoint x="-240" y="552" as="sourcePoint" />
            <mxPoint x="-131" y="669" as="targetPoint" />
          </mxGeometry>
        </mxCell>
        <mxCell id="QfVb8ERAD83yZBM5XTkE-24" value="&lt;font style=&quot;font-size: 12px;&quot; face=&quot;Helvetica&quot;&gt;&lt;b&gt;survplots.py&amp;nbsp;&lt;/b&gt;&lt;/font&gt;&lt;div&gt;&lt;font style=&quot;font-size: 12px;&quot; face=&quot;Helvetica&quot;&gt;&lt;b&gt;&lt;span style=&quot;color: rgb(8, 8, 8);&quot;&gt;--plot kaplan-meier&lt;/span&gt;&lt;/b&gt;&lt;/font&gt;&lt;/div&gt;" style="edgeLabel;html=1;align=center;verticalAlign=middle;resizable=0;points=[];" vertex="1" connectable="0" parent="QfVb8ERAD83yZBM5XTkE-23">
          <mxGeometry x="0.0701" y="2" relative="1" as="geometry">
            <mxPoint as="offset" />
          </mxGeometry>
        </mxCell>
        <mxCell id="QfVb8ERAD83yZBM5XTkE-26" value="Figure 12. Kaplan-Meier plots&lt;div&gt;disease free time of recurrence&amp;nbsp;&lt;/div&gt;&lt;div&gt;treatment&lt;/div&gt;" style="shape=image;html=1;verticalAlign=top;verticalLabelPosition=bottom;labelBackgroundColor=#ffffff;imageAspect=0;aspect=fixed;image=https://cdn4.iconfinder.com/data/icons/essentials-71/24/006_-_Image-128.png" vertex="1" parent="1">
          <mxGeometry x="-170" y="700" width="88" height="88" as="geometry" />
        </mxCell>
        <mxCell id="QfVb8ERAD83yZBM5XTkE-28" value="" style="endArrow=classic;html=1;rounded=0;exitX=0.5;exitY=1;exitDx=0;exitDy=0;" edge="1" parent="1" target="QfVb8ERAD83yZBM5XTkE-26">
          <mxGeometry width="50" height="50" relative="1" as="geometry">
            <mxPoint x="-98.5" y="530" as="sourcePoint" />
            <mxPoint x="-173.5" y="638" as="targetPoint" />
          </mxGeometry>
        </mxCell>
        <mxCell id="QfVb8ERAD83yZBM5XTkE-29" value="&lt;font style=&quot;font-size: 12px;&quot; face=&quot;Helvetica&quot;&gt;&lt;b&gt;survplots.py&amp;nbsp;&lt;/b&gt;&lt;/font&gt;&lt;div&gt;&lt;font style=&quot;font-size: 12px;&quot; face=&quot;Helvetica&quot;&gt;&lt;b&gt;&lt;span style=&quot;color: rgb(8, 8, 8);&quot;&gt;--plot kaplan-meier&lt;/span&gt;&lt;/b&gt;&lt;/font&gt;&lt;/div&gt;" style="edgeLabel;html=1;align=center;verticalAlign=middle;resizable=0;points=[];" vertex="1" connectable="0" parent="QfVb8ERAD83yZBM5XTkE-28">
          <mxGeometry x="0.0701" y="2" relative="1" as="geometry">
            <mxPoint as="offset" />
          </mxGeometry>
        </mxCell>
      </root>
    </mxGraphModel>
  </diagram>
</mxfile>
